{
    "accessors": [
        {
            "bufferView": 0,
            "componentType": 5125,
            "count": 864,
            "max": [
                287.0
            ],
            "min": [
                0.0
            ],
            "name": "mesh0_idx_accessor",
            "type": "SCALAR"
        },
        {
            "bufferView": 1,
            "componentType": 5126,
            "count": 288,
            "max": [
                0.02500000037252903,
                0.02500000037252903,
                0.05400000140070915
            ],
            "min": [
                -0.02500000037252903,
                -0.02500000037252903,
                0.0
            ],
            "name": "mesh0_coord_accessor",
            "type": "VEC3"
        },
        {
            "bufferView": 2,
            "componentType": 5126,
            "count": 288,
            "max": [
                1.0,
                1.0,
                6.123234262925839e-17
            ],
            "min": [
                -1.0,
                -1.0,
                6.123234262925839e-17
            ],
            "name": "mesh0_norm_accessor",
            "type": "VEC3"
        },
        {
            "bufferView": 3,
            "componentType": 5125,
            "count": 864,
            "max": [
                287.0
            ],
            "min": [
                0.0
            ],
            "name": "mesh1_idx_accessor",
            "type": "SCALAR"
        },
        {
            "bufferView": 4,
            "componentType": 5126,
            "count": 288,
            "max": [
                0.02500000037252903,
                0.02500000037252903,
                0.05400000140070915
            ],
            "min": [
                -0.02500000037252903,
                -0.02500000037252903,
                0.05400000140070915
            ],
            "name": "mesh1_coord_accessor",
            "type": "VEC3"
        },
        {
            "bufferView": 5,
            "componentType": 5126,
            "count": 288,
            "max": [
                0.0,
                0.0,
                1.0
            ],
            "min": [
                0.0,
                0.0,
                1.0
            ],
            "name": "mesh1_norm_accessor",
            "type": "VEC3"
        },
        {
            "bufferView": 6,
            "componentType": 5125,
            "count": 432,
            "max": [
                144.0
            ],
            "min": [
                0.0
            ],
            "name": "mesh2_idx_accessor",
            "type": "SCALAR"
        },
        {
            "bufferView": 7,
            "componentType": 5126,
            "count": 145,
            "max": [
                0.02500000037252903,
                0.02500000037252903,
                0.0
            ],
            "min": [
                -0.02500000037252903,
                -0.02500000037252903,
                0.0
            ],
            "name": "mesh2_coord_accessor",
            "type": "VEC3"
        },
        {
            "bufferView": 8,
            "componentType": 5126,
            "count": 145,
            "max": [
                1.2246468525851679e-16,
                0.0,
                -1.0
            ],
            "min": [
                1.2246468525851679e-16,
                0.0,
                -1.0
            ],
            "name": "mesh2_norm_accessor",
            "type": "VEC3"
        },
        {
            "bufferView": 9,
            "componentType": 5125,
            "count": 864,
            "max": [
                287.0
            ],
            "min": [
                0.0
            ],
            "name": "mesh3_idx_accessor",
            "type": "SCALAR"
        },
        {
            "bufferView": 10,
            "componentType": 5126,
            "count": 288,
            "max": [
                0.02250000089406967,
                0.02250000089406967,
                0.05400000140070915
            ],
            "min": [
                -0.02250000089406967,
                -0.02250000089406967,
                0.0024999999441206455
            ],
            "name": "mesh3_coord_accessor",
            "type": "VEC3"
        },
        {
            "bufferView": 11,
            "componentType": 5126,
            "count": 288,
            "max": [
                1.0,
                1.0,
                6.123234262925839e-17
            ],
            "min": [
                -1.0,
                -1.0,
                6.123234262925839e-17
            ],
            "name": "mesh3_norm_accessor",
            "type": "VEC3"
        },
        {
            "bufferView": 12,
            "componentType": 5125,
            "count": 432,
            "max": [
                144.0
            ],
            "min": [
                0.0
            ],
            "name": "mesh4_idx_accessor",
            "type": "SCALAR"
        },
        {
            "bufferView": 13,
            "componentType": 5126,
            "count": 145,
            "max": [
                0.02250000089406967,
                0.02250000089406967,
                0.0024999999441206455
            ],
            "min": [
                -0.02250000089406967,
                -0.02250000089406967,
                0.0024999999441206455
            ],
            "name": "mesh4_coord_accessor",
            "type": "VEC3"
        },
        {
            "bufferView": 14,
            "componentType": 5126,
            "count": 145,
            "max": [
                0.0,
                0.0,
                1.0
            ],
            "min": [
                0.0,
                0.0,
                1.0
            ],
            "name": "mesh4_norm_accessor",
            "type": "VEC3"
        },
        {
            "bufferView": 15,
            "componentType": 5125,
            "count": 843,
            "max": [
                269.0
            ],
            "min": [
                0.0
            ],
            "name": "mesh5_idx_accessor",
            "type": "SCALAR"
        },
        {
            "bufferView": 16,
            "componentType": 5126,
            "count": 270,
            "max": [
                0.005810825154185295,
                0.02250000089406967,
                0.01140470802783966
            ],
            "min": [
                -0.005810840521007776,
                0.02173670008778572,
                0.0011180066503584385
            ],
            "name": "mesh5_coord_accessor",
            "type": "VEC3"
        },
        {
            "bufferView": 17,
            "componentType": 5126,
            "count": 270,
            "max": [
                0.2582595646381378,
                -0.9660755395889282,
                6.123234262925839e-17
            ],
            "min": [
                -0.2582588791847229,
                -1.0,
                6.123234262925839e-17
            ],
            "name": "mesh5_norm_accessor",
            "type": "VEC3"
        },
        {
            "bufferView": 18,
            "componentType": 5125,
            "count": 156771,
            "max": [
                26388.0
            ],
            "min": [
                0.0
            ],
            "name": "mesh6_idx_accessor",
            "type": "SCALAR"
        },
        {
            "bufferView": 19,
            "componentType": 5126,
            "count": 26389,
            "max": [
                0.005810840521007776,
                0.05727590620517731,
                0.05597376450896263
            ],
            "min": [
                -0.005810840521007776,
                0.02173670008778572,
                0.0011180066503584385
            ],
            "name": "mesh6_coord_accessor",
            "type": "VEC3"
        },
        {
            "bufferView": 20,
            "componentType": 5126,
            "count": 26389,
            "max": [
                1.0,
                0.999984860420227,
                0.9999536871910095
            ],
            "min": [
                -1.0,
                -0.9999613761901855,
                -0.9999122023582458
            ],
            "name": "mesh6_norm_accessor",
            "type": "VEC3"
        },
        {
            "bufferView": 21,
            "componentType": 5125,
            "count": 864,
            "max": [
                276.0
            ],
            "min": [
                0.0
            ],
            "name": "mesh7_idx_accessor",
            "type": "SCALAR"
        },
        {
            "bufferView": 22,
            "componentType": 5126,
            "count": 277,
            "max": [
                0.005810840521007776,
                0.02250000089406967,
                0.05179392173886299
            ],
            "min": [
                -0.005810840521007776,
                0.02173670008778572,
                0.04044415056705475
            ],
            "name": "mesh7_coord_accessor",
            "type": "VEC3"
        },
        {
            "bufferView": 23,
            "componentType": 5126,
            "count": 277,
            "max": [
                0.2582595646381378,
                -0.9660755395889282,
                6.123234262925839e-17
            ],
            "min": [
                -0.2582595646381378,
                -1.0,
                6.123234262925839e-17
            ],
            "name": "mesh7_norm_accessor",
            "type": "VEC3"
        }
    ],
    "asset": {
        "version": "2.0"
    },
    "bufferViews": [
        {
            "buffer": 0,
            "byteLength": 3456,
            "name": "mesh0_idx_bufferView",
            "target": 34963
        },
        {
            "buffer": 1,
            "byteLength": 3456,
            "name": "mesh0_coord_bufferView",
            "target": 34962
        },
        {
            "buffer": 2,
            "byteLength": 3456,
            "name": "mesh0_norm_bufferView",
            "target": 34962
        },
        {
            "buffer": 3,
            "byteLength": 3456,
            "name": "mesh1_idx_bufferView",
            "target": 34963
        },
        {
            "buffer": 4,
            "byteLength": 3456,
            "name": "mesh1_coord_bufferView",
            "target": 34962
        },
        {
            "buffer": 5,
            "byteLength": 3456,
            "name": "mesh1_norm_bufferView",
            "target": 34962
        },
        {
            "buffer": 6,
            "byteLength": 1728,
            "name": "mesh2_idx_bufferView",
            "target": 34963
        },
        {
            "buffer": 7,
            "byteLength": 1740,
            "name": "mesh2_coord_bufferView",
            "target": 34962
        },
        {
            "buffer": 8,
            "byteLength": 1740,
            "name": "mesh2_norm_bufferView",
            "target": 34962
        },
        {
            "buffer": 9,
            "byteLength": 3456,
            "name": "mesh3_idx_bufferView",
            "target": 34963
        },
        {
            "buffer": 10,
            "byteLength": 3456,
            "name": "mesh3_coord_bufferView",
            "target": 34962
        },
        {
            "buffer": 11,
            "byteLength": 3456,
            "name": "mesh3_norm_bufferView",
            "target": 34962
        },
        {
            "buffer": 12,
            "byteLength": 1728,
            "name": "mesh4_idx_bufferView",
            "target": 34963
        },
        {
            "buffer": 13,
            "byteLength": 1740,
            "name": "mesh4_coord_bufferView",
            "target": 34962
        },
        {
            "buffer": 14,
            "byteLength": 1740,
            "name": "mesh4_norm_bufferView",
            "target": 34962
        },
        {
            "buffer": 15,
            "byteLength": 3372,
            "name": "mesh5_idx_bufferView",
            "target": 34963
        },
        {
            "buffer": 16,
            "byteLength": 3240,
            "name": "mesh5_coord_bufferView",
            "target": 34962
        },
        {
            "buffer": 17,
            "byteLength": 3240,
            "name": "mesh5_norm_bufferView",
            "target": 34962
        },
        {
            "buffer": 18,
            "byteLength": 627084,
            "name": "mesh6_idx_bufferView",
            "target": 34963
        },
        {
            "buffer": 19,
            "byteLength": 316668,
            "name": "mesh6_coord_bufferView",
            "target": 34962
        },
        {
            "buffer": 20,
            "byteLength": 316668,
            "name": "mesh6_norm_bufferView",
            "target": 34962
        },
        {
            "buffer": 21,
            "byteLength": 3456,
            "name": "mesh7_idx_bufferView",
            "target": 34963
        },
        {
            "buffer": 22,
            "byteLength": 3324,
            "name": "mesh7_coord_bufferView",
            "target": 34962
        },
        {
            "buffer": 23,
            "byteLength": 3324,
            "name": "mesh7_norm_bufferView",
            "target": 34962
        }
    ],
    "buffers": [
        {
            "byteLength": 3456,
            "name": "mesh0_idx_buffer",
            "uri": "data:application/octet-stream;base64,"
        },
        {
            "byteLength": 3456,
            "name": "mesh0_coord_buffer",
            "uri": "data:application/octet-stream;base64,"
        },
        {
            "byteLength": 3456,
            "name": "mesh0_norm_buffer",
            "uri": "data:application/octet-stream;base64,"
        },
        {
            "byteLength": 3456,
            "name": "mesh1_idx_buffer",
            "uri": "data:application/octet-stream;base64,"
        },
        {
            "byteLength": 3456,
            "name": "mesh1_coord_buffer",
            "uri": "data:application/octet-stream;base64,"
        },
        {
            "byteLength": 3456,
            "name": "mesh1_norm_buffer",
            "uri": "data:application/octet-stream;base64,"
        },
        {
            "byteLength": 1728,
            "name": "mesh2_idx_buffer",
            "uri": "data:application/octet-stream;base64,"
        },
        {
            "byteLength": 1740,
            "name": "mesh2_coord_buffer",
            "uri": "data:application/octet-stream;base64,"
        },
        {
            "byteLength": 1740,
            "name": "mesh2_norm_buffer",
            "uri": "data:application/octet-stream;base64,"
        },
        {
            "byteLength": 3456,
            "name": "mesh3_idx_buffer",
            "uri": "data:application/octet-stream;base64,"
        },
        {
            "byteLength": 3456,
            "name": "mesh3_coord_buffer",
            "uri": "data:application/octet-stream;base64,"
        },
        {
            "byteLength": 3456,
            "name": "mesh3_norm_buffer",
            "uri": "data:application/octet-stream;base64,"
        },
        {
            "byteLength": 1728,
            "name": "mesh4_idx_buffer",
            "uri": "data:application/octet-stream;base64,"
        },
        {
            "byteLength": 1740,
            "name": "mesh4_coord_buffer",
            "uri": "data:application/octet-stream;base64,"
        },
        {
            "byteLength": 1740,
            "name": "mesh4_norm_buffer",
            "uri": "data:application/octet-stream;base64,"
        },
        {
            "byteLength": 3372,
            "name": "mesh5_idx_buffer",
            "uri": "data:application/octet-stream;base64,"
        },
        {
            "byteLength": 3240,
            "name": "mesh5_coord_buffer",
            "uri": "data:application/octet-stream;base64,"
        },
        {
            "byteLength": 3240,
            "name": "mesh5_norm_buffer",
            "uri": "data:application/octet-stream;base64,"
        },
        {
            "byteLength": 627084,
            "name": "mesh6_idx_buffer",
            "uri": "data:application/octet-stream;base64,"
        },
        {
            "byteLength": 316668,
            "name": "mesh6_coord_buffer",
            "uri": "data:application/octet-stream;base64,"
        },
        {
            "byteLength": 316668,
            "name": "mesh6_norm_buffer",
            "uri": "data:application/octet-stream;base64,"
        },
        {
            "byteLength": 3456,
            "name": "mesh7_idx_buffer",
            "uri": "data:application/octet-stream;base64,"
        },
        {
            "byteLength": 3324,
            "name": "mesh7_coord_buffer",
            "uri": "data:application/octet-stream;base64,"
        },
        {
            "byteLength": 3324,
            "name": "mesh7_norm_buffer",
            "uri": "data:application/octet-stream;base64,"
        }
    ],
    "materials": [
        {
            "doubleSided": true,
            "name": "0.615686_0.811765_0.929412_0.000000",
            "pbrMetallicRoughness": {
                "baseColorFactor": [
                    0.615686297416687,
                    0.8117647171020508,
                    0.929411768913269,
                    1.0
                ],
                "metallicFactor": 0.0
            }
        },
        {
            "doubleSided": true,
            "name": "0.647059_0.647059_0.647059_0.000000",
            "pbrMetallicRoughness": {
                "baseColorFactor": [
                    0.6470588445663452,
                    0.6470588445663452,
                    0.6470588445663452,
                    1.0
                ],
                "metallicFactor": 0.0
            }
        }
    ],
    "meshes": [
        {
            "name": "mesh0_mesh",
            "primitives": [
                {
                    "attributes": {
                        "NORMAL": 2,
                        "POSITION": 1
                    },
                    "indices": 0,
                    "material": 0
                }
            ]
        },
        {
            "name": "mesh1_mesh",
            "primitives": [
                {
                    "attributes": {
                        "NORMAL": 5,
                        "POSITION": 4
                    },
                    "indices": 3,
                    "material": 0
                }
            ]
        },
        {
            "name": "mesh2_mesh",
            "primitives": [
                {
                    "attributes": {
                        "NORMAL": 8,
                        "POSITION": 7
                    },
                    "indices": 6,
                    "material": 0
                }
            ]
        },
        {
            "name": "mesh3_mesh",
            "primitives": [
                {
                    "attributes": {
                        "NORMAL": 11,
                        "POSITION": 10
                    },
                    "indices": 9,
                    "material": 0
                }
            ]
        },
        {
            "name": "mesh4_mesh",
            "primitives": [
                {
                    "attributes": {
                        "NORMAL": 14,
                        "POSITION": 13
                    },
                    "indices": 12,
                    "material": 0
                }
            ]
        },
        {
            "name": "mesh5_mesh",
            "primitives": [
                {
                    "attributes": {
                        "NORMAL": 17,
                        "POSITION": 16
                    },
                    "indices": 15,
                    "material": 1
                }
            ]
        },
        {
            "name": "mesh6_mesh",
            "primitives": [
                {
                    "attributes": {
                        "NORMAL": 20,
                        "POSITION": 19
                    },
                    "indices": 18,
                    "material": 1
                }
            ]
        },
        {
            "name": "mesh7_mesh",
            "primitives": [
                {
                    "attributes": {
                        "NORMAL": 23,
                        "POSITION": 22
                    },
                    "indices": 21,
                    "material": 1
                }
            ]
        }
    ],
    "nodes": [
        {
            "children": [
                1,
                12
            ]
        },
        {
            "children": [
                2,
                4,
                6,
                8,
                10
            ]
        },
        {
            "children": [
                3
            ]
        },
        {
            "mesh": 0,
            "name": "mesh0_meshnode_0"
        },
        {
            "children": [
                5
            ]
        },
        {
            "mesh": 1,
            "name": "mesh1_meshnode_1"
        },
        {
            "children": [
                7
            ]
        },
        {
            "mesh": 2,
            "name": "mesh2_meshnode_2"
        },
        {
            "children": [
                9
            ]
        },
        {
            "mesh": 3,
            "name": "mesh3_meshnode_3"
        },
        {
            "children": [
                11
            ]
        },
        {
            "mesh": 4,
            "name": "mesh4_meshnode_4"
        },
        {
            "children": [
                13,
                15,
                17
            ]
        },
        {
            "children": [
                14
            ]
        },
        {
            "mesh": 5,
            "name": "mesh5_meshnode_5"
        },
        {
            "children": [
                16
            ]
        },
        {
            "mesh": 6,
            "name": "mesh6_meshnode_6"
        },
        {
            "children": [
                18
            ]
        },
        {
            "mesh": 7,
            "name": "mesh7_meshnode_7"
        }
    ],
    "scene": 0,
    "scenes": [
        {
            "name": "Root",
            "nodes": [
                0
            ]
        }
    ]
}